<?xml version="1.0" standalone="no"?><!DOCTYPE svg PUBLIC "-//W3C//DTD SVG 1.1//EN" "http://www.w3.org/Graphics/SVG/1.1/DTD/svg11.dtd"><svg class="icon" width="200px" height="200.00px" viewBox="0 0 1024 1024" version="1.1" xmlns="http://www.w3.org/2000/svg"><path d="M454.99468239 401.61111298c0-16.18222702-13.19715602-29.37938307-29.53649208-29.37938306h-72.42724914v-35.19241607h72.42724914c16.18222702 0 29.37938307-13.19715602 29.37938307-29.37938305 0-16.18222702-13.19715602-29.37938307-29.37938307-29.37938306h-49.01800808l58.13033011-60.9582921c11.15473903-11.78317502 10.68341202-30.32203706-0.942654-41.4767761-11.78317502-11.15473903-30.32203706-10.68341202-41.47677608 0.942654l-68.34241515 71.79881314-70.38483213-73.36990314c-11.31184801-11.62606602-29.85071007-12.09739302-41.47677608-0.78554501-11.62606602 11.31184801-12.09739302 29.85071007-0.78554501 41.4767761l59.85852914 62.37227311h-48.70379011c-16.18222702 0-29.37938307 13.19715602-29.37938306 29.37938306 0 16.18222702 13.19715602 29.37938307 29.37938306 29.37938305H294.42928405v35.19241607h-72.42724913c-16.18222702 0-29.37938307 13.19715602-29.37938307 29.37938306s13.19715602 29.37938307 29.37938307 29.37938306H294.42928405V480.47983114c0 16.18222702 13.19715602 29.37938307 29.37938306 29.37938305 16.18222702 0 29.37938307-13.19715602 29.37938309-29.37938305v-49.4893351h72.42724913c16.18222702 0 29.37938307-13.19715602 29.37938306-29.37938306z" fill="#2c2c2c" /><path d="M871.49064221 512.37295821V125.09927245c0-52.9457331-56.08791312-96.15070819-125.05876426-96.1507082H177.22596981c-68.97085115 0-125.05876425 43.04786608-125.05876424 96.1507082v698.50661537c0 52.9457331 56.08791312 96.15070819 125.05876424 96.15070818h325.05852167c49.3322261 47.1327001 116.26066023 76.04075616 189.78767236 76.04075615 151.61018528 0 275.09785955-123.48767424 275.09785955-275.09785953 0-83.11066116-37.07772405-157.73743631-95.67938118-208.32653441zM177.22596981 861.9404839c-27.49407505 0-59.38720211-17.28199003-59.3872021-38.33459608V125.09927245c0-21.20971504 31.89312705-38.33459609 59.3872021-38.33459608h569.20590814c27.49407505 0 57.81611211 17.28199003 57.81611213 38.33459608V469.48220111c-34.24976206-15.39668203-72.27014015-23.88056804-112.17582624-23.88056805-151.61018528 0-275.09785955 123.33056524-275.09785954 275.09785956 0 51.68886111 14.29691903 99.9213242 39.12014108 141.24099128H177.22596981zM692.07216384 932.95375204C575.02595862 932.95375204 479.81790443 837.74569786 479.81790443 720.69949262s95.20805418-212.25425942 212.25425941-212.25425941 212.25425942 95.20805418 212.25425943 212.25425941S809.11836908 932.95375204 692.07216384 932.95375204z" fill="#2c2c2c" /><path d="M850.43803616 639.47413945c-11.46895703-13.04004703-31.26469106-14.13981003-44.30473807-2.670853l-154.59525631 137.15615728c-7.22701402 6.28436002-18.06753504 5.81303301-24.66611305-0.942654l-50.27488011-51.37464311c-12.09739302-12.41161103-32.05023607-12.56872002-44.46184708-0.47132699-12.41161103 12.09739302-12.56872002 32.05023607-0.47132701 44.46184708l50.27488012 51.3746431c15.71090003 16.18222702 36.60639708 24.35189504 57.65900309 24.35189506 19.16729804 0 38.17748707-6.59857803 53.57416911-20.42417005l154.59525631-137.15615727c13.04004703-11.46895703 14.13981003-31.26469106 2.670853-44.3047381z" fill="#2c2c2c" /></svg>